<svg id="mermaid-vxfnyxmmv" xmlns="http://www.w3.org/2000/svg" xmlns:xlink="http://www.w3.org/1999/xlink" class="flowchart" style="max-width:100%;background:#fafafa" viewBox="-269.26155647777375 0 1434.8387867836725 1325.4375" role="graphics-document document" aria-roledescription="flowchart-v2" preserveAspectRatio="xMidYMid meet"><style>#mermaid-vxfnyxmmv{font-family:ui-sans-serif,-apple-system,system-ui,Segoe UI,Helvetica;font-size:16px;fill:#333;}@keyframes edge-animation-frame{from{stroke-dashoffset:0;}}@keyframes dash{to{stroke-dashoffset:0;}}#mermaid-vxfnyxmmv .edge-animation-slow{stroke-dasharray:9,5!important;stroke-dashoffset:900;animation:dash 50s linear infinite;stroke-linecap:round;}#mermaid-vxfnyxmmv .edge-animation-fast{stroke-dasharray:9,5!important;stroke-dashoffset:900;animation:dash 20s linear infinite;stroke-linecap:round;}#mermaid-vxfnyxmmv .error-icon{fill:#dddddd;}#mermaid-vxfnyxmmv .error-text{fill:#222222;stroke:#222222;}#mermaid-vxfnyxmmv .edge-thickness-normal{stroke-width:1px;}#mermaid-vxfnyxmmv .edge-thickness-thick{stroke-width:3.5px;}#mermaid-vxfnyxmmv .edge-pattern-solid{stroke-dasharray:0;}#mermaid-vxfnyxmmv .edge-thickness-invisible{stroke-width:0;fill:none;}#mermaid-vxfnyxmmv .edge-pattern-dashed{stroke-dasharray:3;}#mermaid-vxfnyxmmv .edge-pattern-dotted{stroke-dasharray:2;}#mermaid-vxfnyxmmv .marker{fill:#999;stroke:#999;}#mermaid-vxfnyxmmv .marker.cross{stroke:#999;}#mermaid-vxfnyxmmv svg{font-family:ui-sans-serif,-apple-system,system-ui,Segoe UI,Helvetica;font-size:16px;}#mermaid-vxfnyxmmv p{margin:0;}#mermaid-vxfnyxmmv .label{font-family:ui-sans-serif,-apple-system,system-ui,Segoe UI,Helvetica;color:#333;}#mermaid-vxfnyxmmv .cluster-label text{fill:#444;}#mermaid-vxfnyxmmv .cluster-label span{color:#444;}#mermaid-vxfnyxmmv .cluster-label span p{background-color:transparent;}#mermaid-vxfnyxmmv .label text,#mermaid-vxfnyxmmv span{fill:#333;color:#333;}#mermaid-vxfnyxmmv .node rect,#mermaid-vxfnyxmmv .node circle,#mermaid-vxfnyxmmv .node ellipse,#mermaid-vxfnyxmmv .node polygon,#mermaid-vxfnyxmmv .node path{fill:#ffffff;stroke:#dddddd;stroke-width:1px;}#mermaid-vxfnyxmmv .rough-node .label text,#mermaid-vxfnyxmmv .node .label text,#mermaid-vxfnyxmmv .image-shape .label,#mermaid-vxfnyxmmv .icon-shape .label{text-anchor:middle;}#mermaid-vxfnyxmmv .node .katex path{fill:#000;stroke:#000;stroke-width:1px;}#mermaid-vxfnyxmmv .rough-node .label,#mermaid-vxfnyxmmv .node .label,#mermaid-vxfnyxmmv .image-shape .label,#mermaid-vxfnyxmmv .icon-shape .label{text-align:center;}#mermaid-vxfnyxmmv .node.clickable{cursor:pointer;}#mermaid-vxfnyxmmv .root .anchor path{fill:#999!important;stroke-width:0;stroke:#999;}#mermaid-vxfnyxmmv .arrowheadPath{fill:#0b0b0b;}#mermaid-vxfnyxmmv .edgePath .path{stroke:#999;stroke-width:2.0px;}#mermaid-vxfnyxmmv .flowchart-link{stroke:#999;fill:none;}#mermaid-vxfnyxmmv .edgeLabel{background-color:#ffffff;text-align:center;}#mermaid-vxfnyxmmv .edgeLabel p{background-color:#ffffff;}#mermaid-vxfnyxmmv .edgeLabel rect{opacity:0.5;background-color:#ffffff;fill:#ffffff;}#mermaid-vxfnyxmmv .labelBkg{background-color:rgba(255, 255, 255, 0.5);}#mermaid-vxfnyxmmv .cluster rect{fill:#f8f8f8;stroke:#dddddd;stroke-width:1px;}#mermaid-vxfnyxmmv .cluster text{fill:#444;}#mermaid-vxfnyxmmv .cluster span{color:#444;}#mermaid-vxfnyxmmv div.mermaidTooltip{position:absolute;text-align:center;max-width:200px;padding:2px;font-family:ui-sans-serif,-apple-system,system-ui,Segoe UI,Helvetica;font-size:12px;background:#dddddd;border:1px solid hsl(0, 0%, 76.6666666667%);border-radius:2px;pointer-events:none;z-index:100;}#mermaid-vxfnyxmmv .flowchartTitleText{text-anchor:middle;font-size:18px;fill:#333;}#mermaid-vxfnyxmmv rect.text{fill:none;stroke-width:0;}#mermaid-vxfnyxmmv .icon-shape,#mermaid-vxfnyxmmv .image-shape{background-color:#ffffff;text-align:center;}#mermaid-vxfnyxmmv .icon-shape p,#mermaid-vxfnyxmmv .image-shape p{background-color:#ffffff;padding:2px;}#mermaid-vxfnyxmmv .icon-shape rect,#mermaid-vxfnyxmmv .image-shape rect{opacity:0.5;background-color:#ffffff;fill:#ffffff;}#mermaid-vxfnyxmmv .label-icon{display:inline-block;height:1em;overflow:visible;vertical-align:-0.125em;}#mermaid-vxfnyxmmv .node .label-icon path{fill:currentColor;stroke:revert;stroke-width:revert;}#mermaid-vxfnyxmmv .nodeLabel p,#mermaid-vxfnyxmmv .edgeLabel p{color:inherit;}#mermaid-vxfnyxmmv :root{--mermaid-font-family:&quot;trebuchet ms&quot;,verdana,arial,sans-serif;}</style><g><marker id="mermaid-vxfnyxmmv_flowchart-v2-pointEnd" class="marker flowchart-v2" viewBox="0 0 10 10" refX="5" refY="5" markerUnits="userSpaceOnUse" markerWidth="8" markerHeight="8" orient="auto"><path d="M 0 0 L 10 5 L 0 10 z" class="arrowMarkerPath" style="stroke-width: 1; stroke-dasharray: 1, 0;"></path></marker><marker id="mermaid-vxfnyxmmv_flowchart-v2-pointStart" class="marker flowchart-v2" viewBox="0 0 10 10" refX="4.5" refY="5" markerUnits="userSpaceOnUse" markerWidth="8" markerHeight="8" orient="auto"><path d="M 0 5 L 10 10 L 10 0 z" class="arrowMarkerPath" style="stroke-width: 1; stroke-dasharray: 1, 0;"></path></marker><marker id="mermaid-vxfnyxmmv_flowchart-v2-circleEnd" class="marker flowchart-v2" viewBox="0 0 10 10" refX="11" refY="5" markerUnits="userSpaceOnUse" markerWidth="11" markerHeight="11" orient="auto"><circle cx="5" cy="5" r="5" class="arrowMarkerPath" style="stroke-width: 1; stroke-dasharray: 1, 0;"></circle></marker><marker id="mermaid-vxfnyxmmv_flowchart-v2-circleStart" class="marker flowchart-v2" viewBox="0 0 10 10" refX="-1" refY="5" markerUnits="userSpaceOnUse" markerWidth="11" markerHeight="11" orient="auto"><circle cx="5" cy="5" r="5" class="arrowMarkerPath" style="stroke-width: 1; stroke-dasharray: 1, 0;"></circle></marker><marker id="mermaid-vxfnyxmmv_flowchart-v2-crossEnd" class="marker cross flowchart-v2" viewBox="0 0 11 11" refX="12" refY="5.2" markerUnits="userSpaceOnUse" markerWidth="11" markerHeight="11" orient="auto"><path d="M 1,1 l 9,9 M 10,1 l -9,9" class="arrowMarkerPath" style="stroke-width: 2; stroke-dasharray: 1, 0;"></path></marker><marker id="mermaid-vxfnyxmmv_flowchart-v2-crossStart" class="marker cross flowchart-v2" viewBox="0 0 11 11" refX="-1" refY="5.2" markerUnits="userSpaceOnUse" markerWidth="11" markerHeight="11" orient="auto"><path d="M 1,1 l 9,9 M 10,1 l -9,9" class="arrowMarkerPath" style="stroke-width: 2; stroke-dasharray: 1, 0;"></path></marker><g class="root"><g class="clusters"><g class="cluster" id="subGraph1" data-look="classic"><rect style="" x="8" y="1060.4375" width="217.47500610351562" height="104"></rect><g class="cluster-label" transform="translate(56.14375305175781, 1060.4375)"><foreignObject width="121.1875" height="24"><div xmlns="http://www.w3.org/1999/xhtml" style="display: table-cell; white-space: nowrap; line-height: 1.5; max-width: 200px; text-align: center;"><span class="nodeLabel"><p>Voice Verification</p></span></div></foreignObject></g></g><g class="cluster" id="subGraph0" data-look="classic"><rect style="" x="245.47500610351562" y="112" width="642.8406410217285" height="1205.4375"></rect><g class="cluster-label" transform="translate(507.50782585144043, 112)"><foreignObject width="118.7750015258789" height="24"><div xmlns="http://www.w3.org/1999/xhtml" style="display: table-cell; white-space: nowrap; line-height: 1.5; max-width: 200px; text-align: center;"><span class="nodeLabel"><p>Voice Enrollment</p></span></div></foreignObject></g></g></g><g class="edgePaths"><path d="M654.991,48.072L609.029,54.56C563.068,61.048,471.145,74.024,425.183,84.679C379.222,95.333,379.222,103.667,427.068,124.865C474.914,146.063,570.606,180.126,618.453,197.157L666.299,214.188" id="L_A_B_0" class="edge-thickness-normal edge-pattern-solid edge-thickness-normal edge-pattern-solid flowchart-link" style="" marker-end="url(#mermaid-vxfnyxmmv_flowchart-v2-pointEnd)"></path><path d="M680.423,281.264L652.866,296.626C625.308,311.988,570.193,342.713,542.636,361.575C515.078,380.438,515.078,387.438,515.078,390.938L515.078,394.438" id="L_B_C_0" class="edge-thickness-normal edge-pattern-solid edge-thickness-normal edge-pattern-solid flowchart-link" style="" marker-end="url(#mermaid-vxfnyxmmv_flowchart-v2-pointEnd)"></path><path d="M478.512,452.438L467.451,460.604C456.391,468.771,434.271,485.104,433.734,501.041C433.198,516.979,454.246,532.52,464.77,540.291L475.294,548.061" id="L_C_D_0" class="edge-thickness-normal edge-pattern-solid edge-thickness-normal edge-pattern-solid flowchart-link" style="" marker-end="url(#mermaid-vxfnyxmmv_flowchart-v2-pointEnd)"></path><path d="M465.14,604.438L453.734,610.604C442.329,616.771,419.518,629.104,420.233,648.27C420.948,667.435,445.19,693.432,457.312,706.431L469.433,719.43" id="L_D_E_0" class="edge-thickness-normal edge-pattern-solid edge-thickness-normal edge-pattern-solid flowchart-link" style="" marker-end="url(#mermaid-vxfnyxmmv_flowchart-v2-pointEnd)"></path><path d="M469.22,812.579L454.378,826.389C439.537,840.199,409.854,867.818,407.41,887.509C404.965,907.199,429.758,918.961,442.154,924.842L454.551,930.723" id="L_E_F_0" class="edge-thickness-normal edge-pattern-solid edge-thickness-normal edge-pattern-solid flowchart-link" style="" marker-end="url(#mermaid-vxfnyxmmv_flowchart-v2-pointEnd)"></path><path d="M533.21,986.438L537.351,992.604C541.492,998.771,549.774,1011.104,553.915,1023.438C558.056,1035.771,558.056,1048.104,558.056,1062.938C558.056,1077.771,558.056,1095.104,558.056,1112.438C558.056,1129.771,558.056,1147.104,558.056,1161.938C558.056,1176.771,558.056,1189.104,573.805,1201.203C589.554,1213.301,621.053,1225.164,636.802,1231.096L652.551,1237.028" id="L_F_G_0" class="edge-thickness-normal edge-pattern-solid edge-thickness-normal edge-pattern-solid flowchart-link" style="" marker-end="url(#mermaid-vxfnyxmmv_flowchart-v2-pointEnd)"></path><path d="M757.502,1238.438L764.244,1232.271C770.987,1226.104,784.472,1213.771,791.214,1201.438C797.956,1189.104,797.956,1176.771,797.956,1161.938C797.956,1147.104,797.956,1129.771,797.956,1112.438C797.956,1095.104,797.956,1077.771,797.956,1062.938C797.956,1048.104,797.956,1035.771,797.956,1018.938C797.956,1002.104,797.956,980.771,797.956,959.438C797.956,938.104,797.956,916.771,797.956,884.938C797.956,853.104,797.956,810.771,797.956,768.438C797.956,726.104,797.956,683.771,797.956,651.938C797.956,620.104,797.956,598.771,797.956,575.438C797.956,552.104,797.956,526.771,797.956,501.438C797.956,476.104,797.956,450.771,797.956,429.438C797.956,408.104,797.956,390.771,794.783,373.744C791.61,356.717,785.264,339.996,782.091,331.636L778.918,323.276" id="L_G_B_0" class="edge-thickness-normal edge-pattern-solid edge-thickness-normal edge-pattern-solid flowchart-link" style="" marker-end="url(#mermaid-vxfnyxmmv_flowchart-v2-pointEnd)"></path><path d="M551.645,452.438L562.705,460.604C573.765,468.771,595.886,485.104,596.422,501.041C596.958,516.979,575.91,532.52,565.387,540.291L554.863,548.061" id="L_C_D_2" class="edge-thickness-normal edge-pattern-solid edge-thickness-normal edge-pattern-solid flowchart-link" style="" marker-end="url(#mermaid-vxfnyxmmv_flowchart-v2-pointEnd)"></path><path d="M568,604.438L580.087,610.604C592.174,616.771,616.348,629.104,615.53,648.497C614.713,667.891,588.903,694.344,575.999,707.57L563.094,720.797" id="L_D_E_2" class="edge-thickness-normal edge-pattern-solid edge-thickness-normal edge-pattern-solid flowchart-link" style="" marker-end="url(#mermaid-vxfnyxmmv_flowchart-v2-pointEnd)"></path><path d="M563.084,811.432L578.746,825.433C594.408,839.434,625.732,867.436,628.322,887.329C630.911,907.223,604.767,919.008,591.694,924.901L578.622,930.794" id="L_E_F_2" class="edge-thickness-normal edge-pattern-solid edge-thickness-normal edge-pattern-solid flowchart-link" style="" marker-end="url(#mermaid-vxfnyxmmv_flowchart-v2-pointEnd)"></path><path d="M467.005,986.438L456.026,992.604C445.046,998.771,423.087,1011.104,412.108,1023.438C401.128,1035.771,401.128,1048.104,366.675,1060.57C332.222,1073.037,263.316,1085.636,228.863,1091.936L194.41,1098.235" id="L_F_H_0" class="edge-thickness-normal edge-pattern-solid edge-thickness-normal edge-pattern-solid flowchart-link" style="" marker-end="url(#mermaid-vxfnyxmmv_flowchart-v2-pointEnd)"></path><path d="M116.738,1139.438L116.738,1143.604C116.738,1147.771,116.738,1156.104,210.282,1166.438C303.827,1176.771,490.917,1189.104,588.866,1200.912C686.816,1212.72,695.626,1224.002,700.031,1229.644L704.436,1235.285" id="L_H_G_0" class="edge-thickness-normal edge-pattern-solid edge-thickness-normal edge-pattern-solid flowchart-link" style="" marker-end="url(#mermaid-vxfnyxmmv_flowchart-v2-pointEnd)"></path><path d="M765.939,1238.438L774.609,1232.271C783.278,1226.104,800.617,1213.771,809.287,1201.438C817.956,1189.104,817.956,1176.771,817.956,1161.938C817.956,1147.104,817.956,1129.771,817.956,1112.438C817.956,1095.104,817.956,1077.771,817.956,1062.938C817.956,1048.104,817.956,1035.771,817.956,1018.938C817.956,1002.104,817.956,980.771,817.956,959.438C817.956,938.104,817.956,916.771,817.956,884.938C817.956,853.104,817.956,810.771,817.956,768.438C817.956,726.104,817.956,683.771,817.956,651.938C817.956,620.104,817.956,598.771,817.956,575.438C817.956,552.104,817.956,526.771,817.956,501.438C817.956,476.104,817.956,450.771,817.956,429.438C817.956,408.104,817.956,390.771,812.793,372.443C807.629,354.116,797.302,334.795,792.138,325.134L786.975,315.473" id="L_G_B_2" class="edge-thickness-normal edge-pattern-solid edge-thickness-normal edge-pattern-solid flowchart-link" style="" marker-end="url(#mermaid-vxfnyxmmv_flowchart-v2-pointEnd)"></path><path d="M781.492,170.895L785.903,161.079C790.314,151.264,799.135,131.632,803.546,117.649C807.956,103.667,807.956,95.333,803.625,87.435C799.293,79.537,790.631,72.074,786.299,68.342L781.968,64.611" id="L_B_A_0" class="edge-thickness-normal edge-pattern-solid edge-thickness-normal edge-pattern-solid flowchart-link" style="" marker-end="url(#mermaid-vxfnyxmmv_flowchart-v2-pointEnd)"></path></g><g class="edgeLabels"><g class="edgeLabel"><g class="label" transform="translate(0, 0)"><foreignObject width="0" height="0"><div xmlns="http://www.w3.org/1999/xhtml" class="labelBkg" style="display: table-cell; white-space: nowrap; line-height: 1.5; max-width: 200px; text-align: center;"><span class="edgeLabel"></span></div></foreignObject></g></g><g class="edgeLabel"><g class="label" transform="translate(0, 0)"><foreignObject width="0" height="0"><div xmlns="http://www.w3.org/1999/xhtml" class="labelBkg" style="display: table-cell; white-space: nowrap; line-height: 1.5; max-width: 200px; text-align: center;"><span class="edgeLabel"></span></div></foreignObject></g></g><g class="edgeLabel" transform="translate(412.1500129699707, 501.4375)"><g class="label" transform="translate(-85.85625457763672, -12)"><foreignObject width="171.71250915527344" height="24"><div xmlns="http://www.w3.org/1999/xhtml" class="labelBkg" style="display: table-cell; white-space: nowrap; line-height: 1.5; max-width: 200px; text-align: center;"><span class="edgeLabel"><p>audio file, challenge text</p></span></div></foreignObject></g></g><g class="edgeLabel" transform="translate(396.70626068115234, 641.4375)"><g class="label" transform="translate(-54.96875, -12)"><foreignObject width="109.9375" height="24"><div xmlns="http://www.w3.org/1999/xhtml" class="labelBkg" style="display: table-cell; white-space: nowrap; line-height: 1.5; max-width: 200px; text-align: center;"><span class="edgeLabel"><p>transcribed text</p></span></div></foreignObject></g></g><g class="edgeLabel" transform="translate(380.1718854904175, 895.4375)"><g class="label" transform="translate(-21.899999618530273, -12)"><foreignObject width="43.79999923706055" height="24"><div xmlns="http://www.w3.org/1999/xhtml" class="labelBkg" style="display: table-cell; white-space: nowrap; line-height: 1.5; max-width: 200px; text-align: center;"><span class="edgeLabel"><p>match</p></span></div></foreignObject></g></g><g class="edgeLabel" transform="translate(558.0562629699707, 1112.4375)"><g class="label" transform="translate(-70.04375457763672, -12)"><foreignObject width="140.08750915527344" height="24"><div xmlns="http://www.w3.org/1999/xhtml" class="labelBkg" style="display: table-cell; white-space: nowrap; line-height: 1.5; max-width: 200px; text-align: center;"><span class="edgeLabel"><p>speaker embedding</p></span></div></foreignObject></g></g><g class="edgeLabel"><g class="label" transform="translate(0, 0)"><foreignObject width="0" height="0"><div xmlns="http://www.w3.org/1999/xhtml" class="labelBkg" style="display: table-cell; white-space: nowrap; line-height: 1.5; max-width: 200px; text-align: center;"><span class="edgeLabel"></span></div></foreignObject></g></g><g class="edgeLabel" transform="translate(618.0062675476074, 501.4375)"><g class="label" transform="translate(-100, -24)"><foreignObject width="200" height="48"><div xmlns="http://www.w3.org/1999/xhtml" class="labelBkg" style="display: table; white-space: break-spaces; line-height: 1.5; max-width: 200px; text-align: center; width: 200px;"><span class="edgeLabel"><p>audio file, challenge text, reference embedding</p></span></div></foreignObject></g></g><g class="edgeLabel" transform="translate(640.5218925476074, 641.4375)"><g class="label" transform="translate(-54.96875, -12)"><foreignObject width="109.9375" height="24"><div xmlns="http://www.w3.org/1999/xhtml" class="labelBkg" style="display: table-cell; white-space: nowrap; line-height: 1.5; max-width: 200px; text-align: center;"><span class="edgeLabel"><p>transcribed text</p></span></div></foreignObject></g></g><g class="edgeLabel" transform="translate(657.0562677383423, 895.4375)"><g class="label" transform="translate(-21.899999618530273, -12)"><foreignObject width="43.79999923706055" height="24"><div xmlns="http://www.w3.org/1999/xhtml" class="labelBkg" style="display: table-cell; white-space: nowrap; line-height: 1.5; max-width: 200px; text-align: center;"><span class="edgeLabel"><p>match</p></span></div></foreignObject></g></g><g class="edgeLabel" transform="translate(401.12813568115234, 1023.4375)"><g class="label" transform="translate(-63.8125, -12)"><foreignObject width="127.625" height="24"><div xmlns="http://www.w3.org/1999/xhtml" class="labelBkg" style="display: table-cell; white-space: nowrap; line-height: 1.5; max-width: 200px; text-align: center;"><span class="edgeLabel"><p>probe embedding</p></span></div></foreignObject></g></g><g class="edgeLabel" transform="translate(678.0062675476074, 1201.4375)"><g class="label" transform="translate(-99.95000457763672, -12)"><foreignObject width="199.90000915527344" height="24"><div xmlns="http://www.w3.org/1999/xhtml" class="labelBkg" style="display: table-cell; white-space: nowrap; line-height: 1.5; max-width: 200px; text-align: center;"><span class="edgeLabel"><p>similarity score, match result</p></span></div></foreignObject></g></g><g class="edgeLabel"><g class="label" transform="translate(0, 0)"><foreignObject width="0" height="0"><div xmlns="http://www.w3.org/1999/xhtml" class="labelBkg" style="display: table-cell; white-space: nowrap; line-height: 1.5; max-width: 200px; text-align: center;"><span class="edgeLabel"></span></div></foreignObject></g></g><g class="edgeLabel"><g class="label" transform="translate(0, 0)"><foreignObject width="0" height="0"><div xmlns="http://www.w3.org/1999/xhtml" class="labelBkg" style="display: table-cell; white-space: nowrap; line-height: 1.5; max-width: 200px; text-align: center;"><span class="edgeLabel"></span></div></foreignObject></g></g></g><g class="nodes"><g class="node default" id="flowchart-A-0" transform="translate(747.5968971252441, 35)"><rect class="basic label-container" style="" x="-92.60625076293945" y="-27" width="185.2125015258789" height="54"></rect><g class="label" style="" transform="translate(-62.60625076293945, -12)"><rect></rect><foreignObject width="125.2125015258789" height="24"><div xmlns="http://www.w3.org/1999/xhtml" style="display: table-cell; white-space: nowrap; line-height: 1.5; max-width: 200px; text-align: center;"><span class="nodeLabel"><p>ASP.NET Core API</p></span></div></foreignObject></g></g><g class="node default" id="flowchart-B-1" transform="translate(747.5968971252441, 242.71875)"><polygon points="105.71875,0 211.4375,-105.71875 105.71875,-211.4375 0,-105.71875" class="label-container" transform="translate(-105.71875,105.71875)"></polygon><g class="label" style="" transform="translate(-78.71875, -12)"><rect></rect><foreignObject width="157.4375" height="24"><div xmlns="http://www.w3.org/1999/xhtml" style="display: table-cell; white-space: nowrap; line-height: 1.5; max-width: 200px; text-align: center;"><span class="nodeLabel"><p>Python Process Bridge</p></span></div></foreignObject></g></g><g class="node default" id="flowchart-C-3" transform="translate(515.0781402587891, 425.4375)"><rect class="basic label-container" style="" x="-192.49375915527344" y="-27" width="384.9875183105469" height="54"></rect><g class="label" style="" transform="translate(-162.49375915527344, -12)"><rect></rect><foreignObject width="324.9875183105469" height="24"><div xmlns="http://www.w3.org/1999/xhtml" style="display: table; white-space: break-spaces; line-height: 1.5; max-width: 200px; text-align: center; width: 200px;"><span class="nodeLabel"><p>python/voice_verification/voice_verification.py</p></span></div></foreignObject></g></g><g class="node default" id="flowchart-D-5" transform="translate(515.0781402587891, 577.4375)"><rect class="basic label-container" style="" x="-77.6187515258789" y="-27" width="155.2375030517578" height="54"></rect><g class="label" style="" transform="translate(-47.618751525878906, -12)"><rect></rect><foreignObject width="95.23750305175781" height="24"><div xmlns="http://www.w3.org/1999/xhtml" style="display: table-cell; white-space: nowrap; line-height: 1.5; max-width: 200px; text-align: center;"><span class="nodeLabel"><p>SpeechToText</p></span></div></foreignObject></g></g><g class="node default" id="flowchart-E-7" transform="translate(515.0781402587891, 768.4375)"><polygon points="90,0 180,-90 90,-180 0,-90" class="label-container" transform="translate(-90,90)"></polygon><g class="label" style="" transform="translate(-63, -12)"><rect></rect><foreignObject width="126" height="24"><div xmlns="http://www.w3.org/1999/xhtml" style="display: table-cell; white-space: nowrap; line-height: 1.5; max-width: 200px; text-align: center;"><span class="nodeLabel"><p>Challenge Match?</p></span></div></foreignObject></g></g><g class="node default" id="flowchart-F-9" transform="translate(515.0781402587891, 959.4375)"><rect class="basic label-container" style="" x="-94.36250305175781" y="-27" width="188.72500610351562" height="54"></rect><g class="label" style="" transform="translate(-64.36250305175781, -12)"><rect></rect><foreignObject width="128.72500610351562" height="24"><div xmlns="http://www.w3.org/1999/xhtml" style="display: table-cell; white-space: nowrap; line-height: 1.5; max-width: 200px; text-align: center;"><span class="nodeLabel"><p>SpeakerEmbedder</p></span></div></foreignObject></g></g><g class="node default" id="flowchart-G-11" transform="translate(727.9812698364258, 1265.4375)"><rect class="basic label-container" style="" x="-76.5250015258789" y="-27" width="153.0500030517578" height="54"></rect><g class="label" style="" transform="translate(-46.525001525878906, -12)"><rect></rect><foreignObject width="93.05000305175781" height="24"><div xmlns="http://www.w3.org/1999/xhtml" style="display: table-cell; white-space: nowrap; line-height: 1.5; max-width: 200px; text-align: center;"><span class="nodeLabel"><p>JSON Output</p></span></div></foreignObject></g></g><g class="node default" id="flowchart-H-21" transform="translate(116.73750305175781, 1112.4375)"><rect class="basic label-container" style="" x="-73.73749923706055" y="-27" width="147.4749984741211" height="54"></rect><g class="label" style="" transform="translate(-43.73749923706055, -12)"><rect></rect><foreignObject width="87.4749984741211" height="24"><div xmlns="http://www.w3.org/1999/xhtml" style="display: table-cell; white-space: nowrap; line-height: 1.5; max-width: 200px; text-align: center;"><span class="nodeLabel"><p>VoiceVerifier</p></span></div></foreignObject></g></g></g></g></g></svg>